<svg width="64" height="65" viewBox="0 0 64 65" fill="none" xmlns="http://www.w3.org/2000/svg">
<path d="M0 26.3935L8.50513 31.5256V12.8302L15.9009 7.69811L38.8277 22.3612L45.8537 17.2291L15.9009 0L0 9.89756V26.3935Z" fill="#93C7C1"/>
<path d="M26.6247 64.5176L31.8018 56.0863H12.9426L7.76555 48.7548L22.5571 26.0271L17.38 19.0621L0 48.7548L9.98428 64.5176H26.6247Z" fill="#D9D9D9"/>
<path d="M63.6035 38.1241L55.0984 32.992V51.6874L47.7026 56.8195L24.7758 42.1564L17.7498 47.2885L47.7026 64.5176L63.6035 54.62V38.1241Z" fill="#D9D9D9"/>
<path d="M36.9788 0L31.8017 8.43126L50.6609 8.43126L55.838 15.7628L41.0464 38.4905L46.2235 45.4555L63.6035 15.7628L53.6192 0L36.9788 0Z" fill="#D9D9D9"/>
</svg>
